<svg xmlns="http://www.w3.org/2000/svg" viewBox="0 0 64 64"><title>Artboard-5</title><g id="Valentine_Day" data-name="Valentine Day"><path d="M58,10H57V8a4,4,0,0,0-8,0v2H43V8a4,4,0,0,0-8,0v2H29V8a4,4,0,0,0-8,0v2H15V8A4,4,0,0,0,7,8v2H6a6.006,6.006,0,0,0-6,6V54a6.006,6.006,0,0,0,6,6H58a6.006,6.006,0,0,0,6-6V16A6.006,6.006,0,0,0,58,10ZM51,8a2,2,0,0,1,4,0v6a2,2,0,0,1-4,0ZM37,8a2,2,0,0,1,4,0v6a2,2,0,0,1-4,0ZM23,8a2,2,0,0,1,4,0v6a2,2,0,0,1-4,0ZM9,8a2,2,0,0,1,4,0v6a2,2,0,0,1-4,0ZM6,12H7v2a4,4,0,0,0,8,0V12h6v2a4,4,0,0,0,8,0V12h6v2a4,4,0,0,0,8,0V12h6v2a4,4,0,0,0,8,0V12h1a4,4,0,0,1,4,4v4H2V16A4,4,0,0,1,6,12ZM58,58H6a4,4,0,0,1-4-4V22H62V54A4,4,0,0,1,58,58Z" style="fill:#202023"/><path d="M42,49H38a1,1,0,0,0-1,1v4a1,1,0,0,0,1,1h4a1,1,0,0,0,1-1V50A1,1,0,0,0,42,49Zm-1,4H39V51h2Z" style="fill:#202023"/><path d="M50,49H46a1,1,0,0,0-1,1v4a1,1,0,0,0,1,1h4a1,1,0,0,0,1-1V50A1,1,0,0,0,50,49Zm-1,4H47V51h2Z" style="fill:#202023"/><path d="M58,49H54a1,1,0,0,0-1,1v4a1,1,0,0,0,1,1h4a1,1,0,0,0,1-1V50A1,1,0,0,0,58,49Zm-1,4H55V51h2Z" style="fill:#202023"/><path d="M42,41H38a1,1,0,0,0-1,1v4a1,1,0,0,0,1,1h4a1,1,0,0,0,1-1V42A1,1,0,0,0,42,41Zm-1,4H39V43h2Z" style="fill:#202023"/><path d="M50,41H46a1,1,0,0,0-1,1v4a1,1,0,0,0,1,1h4a1,1,0,0,0,1-1V42A1,1,0,0,0,50,41Zm-1,4H47V43h2Z" style="fill:#202023"/><path d="M58,41H54a1,1,0,0,0-1,1v4a1,1,0,0,0,1,1h4a1,1,0,0,0,1-1V42A1,1,0,0,0,58,41Zm-1,4H55V43h2Z" style="fill:#202023"/><path d="M34,49H30a1,1,0,0,0-1,1v4a1,1,0,0,0,1,1h4a1,1,0,0,0,1-1V50A1,1,0,0,0,34,49Zm-1,4H31V51h2Z" style="fill:#202023"/><path d="M34,41H30a1,1,0,0,0-1,1v4a1,1,0,0,0,1,1h4a1,1,0,0,0,1-1V42A1,1,0,0,0,34,41Zm-1,4H31V43h2Z" style="fill:#202023"/><path d="M58,33H54a1,1,0,0,0-1,1v4a1,1,0,0,0,1,1h4a1,1,0,0,0,1-1V34A1,1,0,0,0,58,33Zm-1,4H55V35h2Z" style="fill:#202023"/><path d="M58,29H6a1,1,0,0,0,0,2H58a1,1,0,0,0,0-2Z" style="fill:#202023"/><path d="M6,27h4a1,1,0,0,0,0-2H6a1,1,0,0,0,0,2Z" style="fill:#202023"/><path d="M14,27h4a1,1,0,0,0,0-2H14a1,1,0,0,0,0,2Z" style="fill:#202023"/><path d="M22,27h4a1,1,0,0,0,0-2H22a1,1,0,0,0,0,2Z" style="fill:#202023"/><path d="M30,27h4a1,1,0,0,0,0-2H30a1,1,0,0,0,0,2Z" style="fill:#202023"/><path d="M38,27h4a1,1,0,0,0,0-2H38a1,1,0,0,0,0,2Z" style="fill:#202023"/><path d="M46,27h4a1,1,0,0,0,0-2H46a1,1,0,0,0,0,2Z" style="fill:#202023"/><path d="M58,25H54a1,1,0,0,0,0,2h4a1,1,0,0,0,0-2Z" style="fill:#202023"/><path d="M21.691,34.187a6.388,6.388,0,0,0-5.8,1.859A6.468,6.468,0,0,0,5.174,38.338,6.485,6.485,0,0,0,6.679,45.12l8.507,8.507a1,1,0,0,0,1.414,0l8.5-8.507a6.485,6.485,0,0,0,1.5-6.782A6.4,6.4,0,0,0,21.691,34.187Zm2,9.519-7.8,7.8-7.8-7.8a4.482,4.482,0,0,1-1.04-4.684,4.423,4.423,0,0,1,3.4-2.868,4.569,4.569,0,0,1,.819-.074,4.419,4.419,0,0,1,3.372,1.562,1.7,1.7,0,0,0,2.5,0,4.466,4.466,0,0,1,7.588,1.38A4.482,4.482,0,0,1,23.691,43.706Z" style="fill:#202023"/><path d="M34.707,33.293a1,1,0,0,0-1.414,0L32,34.586l-1.293-1.293a1,1,0,0,0-1.414,1.414L30.586,36l-1.293,1.293a1,1,0,0,0,1.414,1.414L32,37.414l1.293,1.293a1,1,0,0,0,1.414-1.414L33.414,36l1.293-1.293A1,1,0,0,0,34.707,33.293Z" style="fill:#202023"/><path d="M42.707,33.293a1,1,0,0,0-1.414,0L40,34.586l-1.293-1.293a1,1,0,0,0-1.414,1.414L38.586,36l-1.293,1.293a1,1,0,0,0,1.414,1.414L40,37.414l1.293,1.293a1,1,0,0,0,1.414-1.414L41.414,36l1.293-1.293A1,1,0,0,0,42.707,33.293Z" style="fill:#202023"/><path d="M50.707,33.293a1,1,0,0,0-1.414,0L48,34.586l-1.293-1.293a1,1,0,0,0-1.414,1.414L46.586,36l-1.293,1.293a1,1,0,0,0,1.414,1.414L48,37.414l1.293,1.293a1,1,0,0,0,1.414-1.414L49.414,36l1.293-1.293A1,1,0,0,0,50.707,33.293Z" style="fill:#202023"/></g></svg>