<svg xmlns="http://www.w3.org/2000/svg" width="128" height="128" viewBox="0 0 128 128">
  <title>CALENDAR</title>
  <g>
    <path d="M109.19,40.153v57.79a9.517,9.517,0,0,1-9.52,9.52H28.71a9.517,9.517,0,0,1-9.52-9.52V40.153a9.524,9.524,0,0,1,9.52-9.52h2.23v5.3a4.377,4.377,0,0,0,4.37,4.38h.01a4.377,4.377,0,0,0,4.37-4.38v-5.3H50.38v5.3a4.375,4.375,0,1,0,8.75,0v-5.3h10.7v5.3a4.375,4.375,0,1,0,8.75,0v-5.3H89.27v5.3a4.375,4.375,0,1,0,8.75,0v-5.3h1.65A9.524,9.524,0,0,1,109.19,40.153Z" fill="#f89068"/>
    <path d="M39.69,25.333v10.6a4.377,4.377,0,0,1-4.37,4.38h-.01a4.377,4.377,0,0,1-4.37-4.38v-10.6a4.374,4.374,0,0,1,4.37-4.37h.01A4.374,4.374,0,0,1,39.69,25.333Z" fill="#4453e2"/>
    <path d="M59.13,25.333v10.6a4.375,4.375,0,1,1-8.75,0v-10.6a4.375,4.375,0,0,1,8.75,0Z" fill="#4453e2"/>
    <path d="M78.58,25.333v10.6a4.375,4.375,0,1,1-8.75,0v-10.6a4.375,4.375,0,0,1,8.75,0Z" fill="#4453e2"/>
    <path d="M98.02,25.333v10.6a4.375,4.375,0,1,1-8.75,0v-10.6a4.375,4.375,0,0,1,8.75,0Z" fill="#4453e2"/>
    <path d="M109.19,46.793v34.1l-20.57,20.57H28.71a9.52,9.52,0,0,1-9.52-9.52V46.793Z" fill="#ffc26f"/>
    <path d="M109.19,80.893l-20.57,20.57V88.742a7.849,7.849,0,0,1,7.849-7.849Z" fill="#ffe2c0"/>
    <g>
      <rect x="50.733" y="54.816" width="7.391" height="7.391" fill="#ffffe6"/>
      <rect x="89.78" y="54.816" width="7.391" height="7.391" fill="#ffffe6"/>
      <rect x="50.733" y="70.432" width="7.391" height="7.391" fill="#ffffe6"/>
      <rect x="89.78" y="70.432" width="7.391" height="7.391" fill="#ffffe6"/>
      <rect x="50.733" y="86.049" width="7.391" height="7.391" fill="#ffffe6"/>
    </g>
    <g>
      <rect x="31.209" y="54.816" width="7.391" height="7.391" fill="#fffff8"/>
      <rect x="70.256" y="54.816" width="7.391" height="7.391" fill="#fffff8"/>
      <rect x="31.209" y="70.432" width="7.391" height="7.391" fill="#fffff8"/>
      <rect x="70.256" y="70.432" width="7.391" height="7.391" fill="#fffff8"/>
      <rect x="31.209" y="86.049" width="7.391" height="7.391" fill="#fffff8"/>
      <rect x="70.256" y="86.049" width="7.391" height="7.391" fill="#fffff8"/>
    </g>
  </g>
  <path d="M17.44,64v-.793a1.75,1.75,0,0,1,3.5,0V64a1.75,1.75,0,0,1-3.5,0Zm93.5-23.847v57.79a11.283,11.283,0,0,1-11.27,11.27H28.71a11.283,11.283,0,0,1-11.27-11.27V72.5a1.75,1.75,0,0,1,3.5,0V91.943a7.779,7.779,0,0,0,7.77,7.77H86.87V88.742a9.615,9.615,0,0,1,6.754-9.168H89.779a1.751,1.751,0,0,1-1.75-1.75V70.433a1.75,1.75,0,0,1,1.75-1.75h7.392a1.749,1.749,0,0,1,1.75,1.75v7.391a1.738,1.738,0,0,1-.612,1.319h9.131v-30.6H20.94v6.272a1.75,1.75,0,0,1-3.5,0V40.153a11.283,11.283,0,0,1,11.27-11.27h.48v-3.55a6.125,6.125,0,0,1,12.25,0v3.55h7.19v-3.55a6.125,6.125,0,0,1,12.25,0v3.55h7.2v-3.55a6.125,6.125,0,0,1,12.25,0v3.55h7.19v-3.55a6.125,6.125,0,0,1,12.25,0v3.555A11.281,11.281,0,0,1,110.94,40.153ZM95.421,76.074V72.183H91.529v3.891ZM90.37,97.238l14.6-14.595h-8.5a6.105,6.105,0,0,0-6.1,6.1Zm17.07-12.12L89.857,102.7a1.645,1.645,0,0,1-.268.219,1.72,1.72,0,0,1-.174.094c-.043.022-.083.049-.128.067a1.734,1.734,0,0,1-.209.064c-.04.011-.077.027-.117.035a1.768,1.768,0,0,1-.341.034H28.71a11.209,11.209,0,0,1-7.335-2.732,7.776,7.776,0,0,0,7.335,5.232H99.67a7.779,7.779,0,0,0,7.77-7.77ZM91.02,35.933a2.625,2.625,0,1,0,5.25,0v-10.6A2.607,2.607,0,0,0,95.5,23.48a2.628,2.628,0,0,0-4.483,1.853Zm-19.44,0a2.625,2.625,0,1,0,5.25,0v-10.6a2.625,2.625,0,0,0-5.25,0Zm-19.45,0a2.625,2.625,0,1,0,5.25,0v-10.6a2.625,2.625,0,0,0-5.25,0Zm-19.44,0a2.625,2.625,0,1,0,5.25,0v-10.6a2.625,2.625,0,0,0-5.25,0Zm74.75,4.22a7.776,7.776,0,0,0-7.67-7.765v3.545a6.125,6.125,0,1,1-12.25,0v-3.55H80.33v3.55a6.125,6.125,0,1,1-12.25,0v-3.55h-7.2v3.55a6.125,6.125,0,1,1-12.25,0v-3.55H41.44v3.55a6.125,6.125,0,1,1-12.25,0v-3.55h-.48a7.779,7.779,0,0,0-7.77,7.77v4.89h86.5ZM29.459,62.207V54.815a1.75,1.75,0,0,1,1.75-1.75H38.6a1.751,1.751,0,0,1,1.75,1.75v7.392a1.751,1.751,0,0,1-1.75,1.75H31.209A1.75,1.75,0,0,1,29.459,62.207Zm3.5-1.75h3.892V56.565H32.959Zm16.023,1.75V54.815a1.751,1.751,0,0,1,1.75-1.75h7.392a1.75,1.75,0,0,1,1.75,1.75v7.392a1.75,1.75,0,0,1-1.75,1.75H50.732A1.751,1.751,0,0,1,48.982,62.207Zm3.5-1.75h3.892V56.565H52.482Zm16.024,1.75V54.815a1.75,1.75,0,0,1,1.75-1.75h7.391a1.75,1.75,0,0,1,1.75,1.75v7.392a1.75,1.75,0,0,1-1.75,1.75H70.256A1.75,1.75,0,0,1,68.506,62.207Zm3.5-1.75H75.9V56.565H72.006Zm16.023,1.75V54.815a1.751,1.751,0,0,1,1.75-1.75h7.392a1.75,1.75,0,0,1,1.75,1.75v7.392a1.75,1.75,0,0,1-1.75,1.75H89.779A1.751,1.751,0,0,1,88.029,62.207Zm3.5-1.75h3.892V56.565H91.529Zm-62.07,9.976a1.749,1.749,0,0,1,1.75-1.75H38.6a1.75,1.75,0,0,1,1.75,1.75v7.391a1.751,1.751,0,0,1-1.75,1.75H31.209a1.75,1.75,0,0,1-1.75-1.75Zm3.5,5.641h3.892V72.183H32.959Zm16.023-5.641a1.75,1.75,0,0,1,1.75-1.75h7.392a1.749,1.749,0,0,1,1.75,1.75v7.391a1.75,1.75,0,0,1-1.75,1.75H50.732a1.751,1.751,0,0,1-1.75-1.75Zm3.5,5.641h3.892V72.183H52.482Zm16.024-5.641a1.749,1.749,0,0,1,1.75-1.75h7.391a1.749,1.749,0,0,1,1.75,1.75v7.391a1.75,1.75,0,0,1-1.75,1.75H70.256a1.75,1.75,0,0,1-1.75-1.75Zm3.5,5.641H75.9V72.183H72.006ZM29.459,86.049a1.75,1.75,0,0,1,1.75-1.75H38.6a1.751,1.751,0,0,1,1.75,1.75V93.44a1.75,1.75,0,0,1-1.75,1.75H31.209a1.749,1.749,0,0,1-1.75-1.75Zm3.5,5.641h3.892V87.8H32.959Zm16.023-5.641a1.751,1.751,0,0,1,1.75-1.75h7.392a1.75,1.75,0,0,1,1.75,1.75V93.44a1.749,1.749,0,0,1-1.75,1.75H50.732a1.75,1.75,0,0,1-1.75-1.75Zm3.5,5.641h3.892V87.8H52.482Zm16.024-5.641a1.75,1.75,0,0,1,1.75-1.75h7.391a1.75,1.75,0,0,1,1.75,1.75V93.44a1.749,1.749,0,0,1-1.75,1.75H70.256a1.749,1.749,0,0,1-1.75-1.75Zm3.5,5.641H75.9V87.8H72.006Z" fill="#13134c"/>
</svg>
